<svg xmlns="http://www.w3.org/2000/svg" viewBox="0 0 841.9 595.3"><g xmlns="http://www.w3.org/2000/svg" transform="translate(0.000000,600.000000) scale(0.075,-0.075)" fill="#000000" stroke="none">
<path style="fill:#15a0bd" d="M2064 7841 c-43 -26 -181 -179 -204 -226 -78 -160 -121 -608 -86 -892 20 -162 70 -360 132 -524 79 -209 220 -535 314 -724 80 -162 305 -576 398 -730 68 -114 251 -381 369 -540 242 -325 689 -835 732 -835 21 0 10 42 -43 173 -30 73 -91 222 -136 332 -538 1316 -1044 2703 -1320 3620 -87 290 -107 352 -119 359 -4 3 -21 -3 -37 -13z"/>
<path style="fill:#15a0bd" d="M1072 5877 c-20 -24 -61 -214 -73 -333 -32 -338 52 -579 267 -774 28 -25 158 -147 290 -271 267 -252 496 -461 1034 -938 201 -179 415 -370 475 -426 282 -259 363 -309 280 -173 -63 103 -142 214 -265 373 -64 83 -152 197 -195 255 -89 119 -517 675 -920 1195 -149 193 -345 447 -435 565 -201 264 -380 490 -411 519 -26 24 -33 26 -47 8z"/>
<path style="fill:#15a0bd" d="M661 4146 c-14 -16 3 -155 40 -334 34 -167 109 -314 217 -425 96 -98 153 -124 662 -301 284 -100 1424 -472 1535 -503 52 -14 95 -17 95 -7 0 10 -42 42 -105 81 -330 202 -1118 694 -1345 840 -85 55 -220 139 -300 188 -80 48 -224 138 -320 200 -224 143 -419 260 -446 269 -13 4 -26 1 -33 -8z"/>
<path style="fill:#a7ce3e" d="M787 2653 c-41 -40 106 -297 247 -430 88 -84 151 -123 261 -161 l80 -27 937 -3 c841 -2 941 -1 969 13 16 9 29 21 26 28 -13 41 -201 95 -642 186 -328 68 -787 166 -1516 325 -383 84 -353 78 -362 69z"/>
<path style="fill:#000000" d="M6295 2489 c-38 -19 -42 -38 -34 -154 12 -164 15 -442 6 -452 -5 -4 -93 -11 -195 -15 -103 -3 -209 -11 -237 -16 -77 -16 -80 -10 -80 161 0 78 4 197 8 264 8 123 8 123 -17 148 -31 30 -60 32 -105 4 l-34 -21 6 -381 c7 -368 20 -705 32 -815 6 -45 11 -54 36 -67 26 -14 32 -14 58 0 16 8 32 23 35 33 3 9 0 125 -8 257 -8 134 -10 249 -6 261 12 31 80 44 275 51 173 6 230 1 239 -22 3 -9 10 -160 16 -338 l11 -322 27 -22 c34 -29 54 -29 88 1 l28 23 -13 529 c-7 291 -16 603 -21 693 -7 162 -8 165 -34 188 -29 25 -49 28 -81 12z"/>
<path style="fill:#000000" d="M5253 2515 c-17 -7 -34 -22 -37 -32 -4 -11 -2 -82 4 -159 12 -162 12 -750 1 -779 -9 -23 0 -37 -148 240 -46 88 -128 225 -180 305 -159 240 -234 330 -279 330 -39 0 -104 -38 -115 -68 -16 -40 -5 -319 36 -902 23 -331 34 -380 88 -380 55 1 67 39 56 185 -15 204 -41 866 -35 882 6 14 9 13 28 -3 63 -57 283 -424 431 -719 58 -116 112 -217 121 -224 8 -7 30 -14 48 -14 28 -2 35 3 50 33 30 65 48 380 48 857 l0 432 -22 15 c-27 19 -53 20 -95 1z"/>
<path style="fill:#000000" d="M8797 2489 c-179 -15 -371 -50 -392 -71 -19 -18 -20 -31 -19 -241 1 -138 8 -268 18 -344 9 -67 16 -148 16 -181 0 -33 4 -82 10 -110 5 -28 19 -124 30 -214 23 -181 35 -230 61 -254 17 -15 38 -15 230 -5 287 16 369 33 384 80 9 28 -11 70 -37 76 -13 3 -87 -3 -163 -14 -77 -11 -174 -23 -215 -27 -100 -8 -105 -2 -125 142 -8 60 -19 133 -25 163 -15 82 -13 217 5 234 13 14 117 32 318 56 110 13 143 49 101 110 -16 23 -21 23 -96 17 -44 -4 -111 -13 -149 -21 -39 -8 -104 -15 -145 -15 l-74 0 0 214 c0 170 3 216 14 225 23 19 141 39 296 50 187 14 206 18 230 43 26 28 25 50 -3 76 -20 19 -34 22 -103 21 -43 -1 -119 -5 -167 -10z"/>
<path style="fill:#000000" d="M7612 2460 c-87 -12 -165 -36 -193 -59 l-24 -19 -3 -329 c-4 -329 11 -774 28 -847 12 -52 23 -61 78 -61 90 0 297 102 438 217 124 100 240 274 280 418 24 89 29 254 11 327 -45 174 -146 287 -298 334 -72 22 -227 32 -317 19z m169 -120 c84 -16 195 -74 229 -122 137 -188 84 -514 -118 -730 -92 -99 -304 -224 -341 -201 -14 9 -16 55 -13 478 1 261 6 484 12 504 18 68 105 94 231 71z"/>
<path style="fill:#000000" d="M9555 2438 c-75 -39 -158 -135 -208 -238 -26 -52 -51 -120 -58 -150 -6 -30 -20 -94 -30 -141 -34 -156 -24 -324 32 -532 23 -87 121 -216 191 -253 21 -11 64 -19 120 -22 80 -4 93 -2 143 23 31 15 84 55 121 92 l64 65 25 -59 c44 -104 59 -127 88 -137 60 -21 81 33 53 134 -27 98 -66 409 -66 532 0 36 -96 52 -138 22 -18 -13 -22 -24 -21 -72 0 -31 4 -80 8 -109 13 -89 -40 -232 -111 -300 -46 -44 -122 -77 -162 -69 -84 17 -141 89 -178 222 -18 69 -21 106 -22 284 0 178 2 216 21 291 42 166 99 260 184 303 67 33 85 33 141 -3 59 -38 94 -107 107 -214 11 -91 28 -117 78 -117 54 0 73 28 73 108 0 165 -86 317 -199 350 -21 7 -78 12 -127 12 -71 -1 -97 -5 -129 -22z"/>
<path style="fill:#000000" d="M6693 2390 c-18 -11 -35 -31 -39 -46 -4 -14 -1 -139 5 -277 7 -139 16 -407 20 -596 7 -320 9 -344 26 -357 48 -35 86 -6 96 72 11 86 10 1112 -1 1159 -15 65 -50 80 -107 45z"/>
<path style="fill:#000000" d="M10326 2389 c-15 -12 -31 -31 -35 -43 -5 -11 -4 -91 1 -176 5 -85 12 -354 16 -598 7 -423 8 -444 26 -458 28 -20 51 -17 81 9 l27 23 5 494 c6 517 -2 701 -32 747 -19 29 -54 30 -89 2z"/>
<path style="fill:#a7ce3e" d="M2910 1609 c-195 -5 -566 -13 -824 -18 -289 -6 -472 -13 -478 -19 -22 -22 6 -69 91 -152 106 -103 177 -146 324 -196 111 -38 113 -38 272 -38 184 -1 263 13 450 75 191 64 517 228 602 302 50 44 44 57 -24 55 -32 0 -218 -5 -413 -9z"/>
<path style="fill:#a7ce3e" d="M3810 1189 c-14 -6 -63 -21 -110 -33 -229 -62 -304 -83 -680 -186 -223 -61 -413 -113 -422 -116 -11 -3 -18 -15 -18 -32 0 -33 108 -140 192 -190 150 -89 338 -77 533 35 140 80 402 301 524 441 44 52 51 65 41 77 -14 17 -25 18 -60 4z"/>
<path style="fill:#f09b2e" d="M4249 806 c-19 -7 -125 -60 -235 -118 -109 -58 -260 -136 -334 -173 -188 -93 -250 -132 -250 -156 0 -25 43 -50 150 -91 68 -25 101 -31 165 -32 153 -1 253 70 408 291 111 159 160 247 152 272 -7 24 -8 24 -56 7z"/>
<path style="fill:#f09b2e" d="M4604 434 c-228 -236 -258 -272 -248 -297 14 -38 145 -45 279 -15 72 16 144 91 173 178 45 136 57 341 21 348 -10 2 -95 -79 -225 -214z"/>
<path style="fill:#000000" d="M8014 610 c-35 -14 -37 -28 -10 -61 24 -28 26 -39 26 -117 0 -98 9 -123 37 -106 15 9 18 26 18 97 0 70 4 90 21 114 36 49 36 53 12 62 -41 15 -83 19 -104 11z"/>
<path style="fill:#000000" d="M5855 596 c-16 -12 -19 -30 -23 -132 -3 -93 -1 -123 11 -138 21 -29 45 -13 58 39 9 36 20 51 52 73 93 62 63 172 -47 172 -17 0 -41 -6 -51 -14z m75 -91 c0 -13 -4 -27 -10 -30 -6 -4 -10 8 -10 30 0 22 4 34 10 30 6 -3 10 -17 10 -30z"/>
<path style="fill:#000000" d="M6149 593 c-10 -11 -15 -52 -17 -127 -5 -151 22 -217 49 -125 7 23 19 43 27 46 8 3 34 -15 62 -42 26 -26 53 -44 59 -41 18 11 13 41 -11 72 -20 25 -23 39 -20 105 2 75 2 78 -29 103 -36 31 -98 36 -120 9z m99 -79 c4 -29 -23 -51 -43 -34 -16 13 -20 42 -8 54 14 14 48 1 51 -20z"/>
<path style="fill:#000000" d="M6533 594 c-52 -26 -68 -59 -68 -140 1 -111 49 -161 146 -152 122 12 170 119 108 241 -32 62 -116 85 -186 51z m100 -55 c66 -30 63 -155 -4 -178 -44 -15 -56 -14 -79 9 -15 15 -20 33 -20 78 0 90 36 122 103 91z"/>
<path style="fill:#000000" d="M6890 600 c-12 -7 -15 -35 -15 -145 0 -109 3 -138 15 -146 8 -5 50 -8 93 -6 93 4 120 24 136 96 18 86 -14 171 -74 197 -39 16 -132 19 -155 4z m137 -58 c29 -19 44 -122 23 -162 -15 -27 -65 -35 -96 -15 -25 16 -26 20 -22 91 2 52 8 78 18 84 18 12 60 13 77 2z"/>
<path style="fill:#000000" d="M7683 595 c-51 -22 -73 -68 -73 -149 0 -68 1 -70 42 -109 40 -38 43 -39 100 -35 94 7 107 47 15 48 -72 0 -115 78 -84 152 14 33 21 37 71 48 61 12 74 23 56 45 -16 19 -84 19 -127 0z"/>
<path style="fill:#000000" d="M8539 571 c-38 -38 -39 -40 -39 -115 0 -73 1 -77 36 -116 35 -39 38 -40 101 -40 62 0 67 2 103 38 66 66 64 155 -7 233 -34 37 -38 39 -95 39 -57 0 -63 -2 -99 -39z m150 -40 c25 -25 36 -83 24 -124 -11 -41 -70 -67 -107 -47 -42 22 -59 91 -35 144 21 45 85 60 118 27z"/>
<path style="fill:#000000" d="M9342 594 c-17 -12 -22 -25 -22 -59 0 -37 7 -51 45 -96 25 -29 45 -58 45 -65 0 -14 -23 -24 -55 -24 -29 0 -41 -16 -25 -35 15 -18 79 -20 113 -4 64 29 56 92 -20 166 -46 44 -48 63 -7 81 29 14 31 28 5 42 -28 14 -53 13 -79 -6z"/>
<path style="fill:#000000" d="M8285 567 c-10 -24 -15 -65 -14 -119 1 -98 9 -132 31 -136 30 -6 40 34 36 149 -2 86 -7 112 -20 126 -17 16 -18 15 -33 -20z"/>
<path style="fill:#000000" d="M8920 574 c-6 -14 -13 -72 -16 -128 -5 -80 -3 -105 9 -120 30 -40 67 7 67 84 0 21 4 41 9 44 5 4 32 -22 59 -56 27 -35 60 -72 72 -83 l22 -20 24 28 c21 25 24 38 24 111 0 100 -8 146 -27 153 -21 8 -24 2 -36 -88 l-12 -83 -58 69 c-32 39 -66 80 -77 93 -25 29 -48 28 -60 -4z"/>
<path style="fill:#000000" d="M7253 578 c-11 -18 -8 -177 6 -210 13 -34 66 -68 104 -68 47 0 104 35 116 72 15 50 24 142 16 177 -7 31 -39 51 -56 34 -6 -6 -13 -54 -18 -108 -9 -102 -20 -125 -62 -125 -36 0 -49 28 -50 108 -1 42 -4 88 -8 102 -8 28 -35 38 -48 18z"/>
<path style="fill:#f09b2e" d="M5306 505 c-49 -53 -288 -424 -284 -442 8 -40 140 -4 234 65 28 20 52 52 73 93 29 59 31 68 31 180 0 96 -3 118 -16 123 -9 3 -24 -4 -38 -19z"/>
</g></svg>